<?xml version="1.0" encoding="UTF-8"?>
<svg width="20px" height="20px" viewBox="0 0 20 20" version="1.1" xmlns="http://www.w3.org/2000/svg" xmlns:xlink="http://www.w3.org/1999/xlink">
    <!-- Generator: Sketch 60 (88103) - https://sketch.com -->
    <title>button/Hmenu Copy</title>
    <desc>Created with Sketch.</desc>
    <g id="Symbols" stroke="none" stroke-width="1" fill="none" fill-rule="evenodd">
        <g id="section/header/PC" transform="translate(-1334.000000, -22.000000)" stroke="#000000">
            <g id="section/header">
                <g id="rightMenu" transform="translate(1268.000000, 20.000000)">
                    <g id="button/language/positive" transform="translate(64.000000, 0.000000)">
                        <g id="Group-17" transform="translate(2.000000, 2.000000)">
                            <path d="M19.3160333,9.91326 C19.3160333,15.10726 15.1067,19.31426 9.9127,19.31426 C4.7187,19.31426 0.509366667,15.10726 0.509366667,9.91326 C0.509366667,4.71926 4.7187,0.509926667 9.9127,0.509926667 C15.1067,0.509926667 19.3160333,4.71926 19.3160333,9.91326 Z" id="Stroke-1"></path>
                            <path d="M4.91026667,9.91326 C4.91026667,15.10726 7.15026667,19.31426 9.91293333,19.31426 C12.6756,19.31426 14.9132667,15.10726 14.9132667,9.91326 C14.9132667,4.71926 12.6756,0.509926667 9.91293333,0.509926667 C7.15026667,0.509926667 4.91026667,4.71926 4.91026667,9.91326 Z" id="Stroke-3"></path>
                            <path d="M4.91026667,9.91326 C4.91026667,15.10726 7.15026667,19.31426 9.91293333,19.31426 C12.6756,19.31426 14.9132667,15.10726 14.9132667,9.91326 C14.9132667,4.71926 12.6756,0.509926667 9.91293333,0.509926667 C7.15026667,0.509926667 4.91026667,4.71926 4.91026667,9.91326 Z" id="Stroke-5"></path>
                            <path d="M4.91026667,9.91326 C4.91026667,15.10726 7.15026667,19.31426 9.91293333,19.31426 C12.6756,19.31426 14.9132667,15.10726 14.9132667,9.91326 C14.9132667,4.71926 12.6756,0.509926667 9.91293333,0.509926667 C7.15026667,0.509926667 4.91026667,4.71926 4.91026667,9.91326 Z" id="Stroke-7"></path>
                            <line x1="9.912" y1="0.509226667" x2="9.912" y2="19.3158933" id="Stroke-9"></line>
                            <polyline id="Stroke-11" points="1.86153333 5.05969333 5.6392 5.05969333 9.91153333 5.05969333 14.1862 5.05969333 17.9638667 5.05969333"></polyline>
                            <line x1="0.5103" y1="9.91326" x2="19.3169667" y2="9.91326" id="Stroke-13"></line>
                            <polyline id="Stroke-15" points="1.85476667 14.7668267 5.6301 14.7668267 9.91176667 14.7668267 14.1934333 14.7668267 17.9711 14.7668267"></polyline>
                        </g>
                    </g>
                </g>
            </g>
        </g>
    </g>
</svg>